<svg width="816" height="283" viewBox="0 0 816 283" fill="none" xmlns="http://www.w3.org/2000/svg">
<rect x="146" y="90" width="72.8244" height="72.8" fill="#D9D9D9"/>
<g style="mix-blend-mode:luminosity">
<path d="M271.132 47.2612H256.969V84.0989H271.132C273.675 84.0989 276.036 83.59 278.234 82.5823C280.187 81.6865 281.907 80.5057 283.412 79.0705L274.001 47.5157C273.065 47.363 272.109 47.2612 271.122 47.2612H271.132Z" fill="#2CAAE2"/>
</g>
<g style="mix-blend-mode:luminosity">
<path d="M273.93 47.2612L274.011 47.5157C275.456 47.76 276.86 48.157 278.193 48.7779C280.391 49.7856 282.314 51.1292 283.952 52.8088C285.6 54.4883 286.892 56.4427 287.838 58.6719C288.785 60.901 289.253 63.2422 289.253 65.6852C289.253 68.1281 288.785 70.4184 287.859 72.6476C286.933 74.8768 285.641 76.8413 284.003 78.531C283.819 78.7244 283.616 78.8975 283.423 79.0807L284.918 84.1091H318.912L329.9 47.2714H273.93V47.2612Z" fill="#8DCB89"/>
</g>
<g style="mix-blend-mode:luminosity">
<path d="M287.859 72.6475C288.785 70.4183 289.253 68.0975 289.253 65.6851C289.253 63.2727 288.785 60.901 287.838 58.6718C286.892 56.4426 285.6 54.4882 283.952 52.8087C282.303 51.1292 280.391 49.7855 278.193 48.7778C276.86 48.1671 275.456 47.7599 274.011 47.5156L283.423 79.0704C283.616 78.8872 283.819 78.7142 284.003 78.5208C285.651 76.8311 286.933 74.8665 287.859 72.6373V72.6475Z" fill="#2CAAE2"/>
</g>
<path d="M287.859 72.6475C288.785 70.4183 289.253 68.0975 289.253 65.6851C289.253 63.2727 288.785 60.901 287.838 58.6718C286.892 56.4426 285.6 54.4882 283.952 52.8087C282.303 51.1292 280.391 49.7855 278.193 48.7778C276.86 48.1671 275.456 47.7599 274.011 47.5156L283.423 79.0704C283.616 78.8872 283.819 78.7142 284.003 78.5208C285.651 76.8311 286.933 74.8665 287.859 72.6373V72.6475Z" fill="#FEE400"/>
<g style="mix-blend-mode:multiply">
<path d="M360.912 47.2612H346.749V84.0989H360.912C363.456 84.0989 365.816 83.59 368.014 82.5823C369.967 81.6865 371.687 80.5057 373.193 79.0705L363.781 47.5157C362.845 47.363 361.889 47.2612 360.902 47.2612H360.912Z" fill="#2CAAE2"/>
</g>
<g style="mix-blend-mode:multiply">
<path d="M363.71 47.2612L363.791 47.5157C365.236 47.76 366.64 48.157 367.973 48.7779C370.171 49.7856 372.094 51.1292 373.732 52.8088C375.38 54.4883 376.673 56.4427 377.619 58.6719C378.565 60.901 379.033 63.2422 379.033 65.6852C379.033 68.1281 378.565 70.4184 377.639 72.6476C376.713 74.8768 375.421 76.8413 373.783 78.531C373.6 78.7244 373.396 78.8975 373.203 79.0807L374.699 84.1091H408.692L419.68 47.2714H363.71V47.2612Z" fill="#F06BA8"/>
</g>
<path d="M377.639 72.6475C378.565 70.4183 379.033 68.0975 379.033 65.6851C379.033 63.2727 378.565 60.901 377.619 58.6718C376.673 56.4426 375.38 54.4882 373.732 52.8087C372.084 51.1292 370.171 49.7855 367.973 48.7778C366.64 48.1671 365.236 47.7599 363.791 47.5156L373.203 79.0704C373.396 78.8872 373.6 78.7142 373.783 78.5208C375.431 76.8311 376.713 74.8665 377.639 72.6373V72.6475Z" fill="#FEE400"/>
<g style="mix-blend-mode:multiply">
<path d="M454.569 47.2612H440.406V84.0989H454.569C457.113 84.0989 459.473 83.59 461.671 82.5823C463.624 81.6865 465.344 80.5057 466.85 79.0705L457.438 47.5157C456.502 47.363 455.546 47.2612 454.559 47.2612H454.569Z" fill="#2CAAE2"/>
</g>
<g style="mix-blend-mode:multiply">
<path d="M457.367 47.2612L457.448 47.5157C458.893 47.76 460.297 48.157 461.63 48.7779C463.828 49.7856 465.751 51.1292 467.389 52.8088C469.037 54.4883 470.329 56.4427 471.276 58.6719C472.222 60.901 472.69 63.2422 472.69 65.6852C472.69 68.1281 472.222 70.4184 471.296 72.6476C470.37 74.8768 469.078 76.8413 467.44 78.531C467.257 78.7244 467.053 78.8975 466.86 79.0807L468.356 84.1091H502.349L513.337 47.2714H457.367V47.2612Z" fill="#F06BA8"/>
</g>
<g style="mix-blend-mode:luminosity">
<path d="M471.296 72.6475C472.222 70.4183 472.69 68.0975 472.69 65.6851C472.69 63.2727 472.222 60.901 471.276 58.6718C470.329 56.4426 469.037 54.4882 467.389 52.8087C465.741 51.1292 463.828 49.7855 461.63 48.7778C460.297 48.1671 458.893 47.7599 457.448 47.5156L466.86 79.0704C467.053 78.8872 467.257 78.7142 467.44 78.5208C469.088 76.8311 470.37 74.8665 471.296 72.6373V72.6475Z" fill="#2CAAE2"/>
</g>
<path d="M471.296 72.6475C472.222 70.4183 472.69 68.0975 472.69 65.6851C472.69 63.2727 472.222 60.901 471.276 58.6718C470.329 56.4426 469.037 54.4882 467.389 52.8087C465.741 51.1292 463.828 49.7855 461.63 48.7778C460.297 48.1671 458.893 47.7599 457.448 47.5156L466.86 79.0704C467.053 78.8872 467.257 78.7142 467.44 78.5208C469.088 76.8311 470.37 74.8665 471.296 72.6373V72.6475Z" fill="#8DCB89"/>
<path d="M454.569 109.943H440.406V146.781H454.569C457.113 146.781 459.473 146.272 461.671 145.264C463.624 144.369 465.344 143.188 466.85 141.753L457.438 110.198C456.502 110.045 455.546 109.943 454.559 109.943H454.569Z" fill="#FEE400"/>
<g style="mix-blend-mode:multiply">
<path d="M457.367 109.943L457.448 110.198C458.893 110.442 460.297 110.839 461.63 111.46C463.828 112.468 465.751 113.811 467.389 115.491C469.037 117.17 470.329 119.125 471.276 121.354C472.222 123.583 472.69 125.924 472.69 128.367C472.69 130.81 472.222 133.101 471.296 135.33C470.37 137.559 469.078 139.523 467.44 141.213C467.257 141.407 467.053 141.58 466.86 141.763L468.356 146.791H502.349L513.337 109.954H457.367V109.943Z" fill="#F06BA8"/>
</g>
<g style="mix-blend-mode:luminosity">
<path d="M471.296 135.33C472.222 133.1 472.69 130.78 472.69 128.367C472.69 125.955 472.222 123.583 471.276 121.354C470.329 119.125 469.037 117.17 467.389 115.491C465.741 113.811 463.828 112.468 461.63 111.46C460.297 110.849 458.893 110.442 457.448 110.198L466.86 141.753C467.053 141.569 467.257 141.396 467.44 141.203C469.088 139.513 470.37 137.549 471.296 135.319V135.33Z" fill="#2CAAE2"/>
</g>
<path d="M471.296 135.33C472.222 133.1 472.69 130.78 472.69 128.367C472.69 125.955 472.222 123.583 471.276 121.354C470.329 119.125 469.037 117.17 467.389 115.491C465.741 113.811 463.828 112.468 461.63 111.46C460.297 110.849 458.893 110.442 457.448 110.198L466.86 141.753C467.053 141.569 467.257 141.396 467.44 141.203C469.088 139.513 470.37 137.549 471.296 135.319V135.33Z" fill="#8DCB89"/>
<path d="M271.132 172.636H256.969V209.473H271.132C273.675 209.473 276.036 208.964 278.234 207.957C280.187 207.061 281.907 205.88 283.412 204.445L274.001 172.89C273.065 172.738 272.109 172.636 271.122 172.636H271.132Z" fill="#8DCB89"/>
<g style="mix-blend-mode:multiply">
<path d="M273.93 172.636L274.011 172.89C275.456 173.135 276.86 173.531 278.193 174.152C280.391 175.16 282.314 176.504 283.952 178.183C285.6 179.863 286.892 181.817 287.838 184.046C288.785 186.276 289.253 188.617 289.253 191.06C289.253 193.503 288.785 195.793 287.859 198.022C286.933 200.251 285.641 202.216 284.003 203.906C283.819 204.099 283.616 204.272 283.423 204.455L284.918 209.484H318.912L329.9 172.646H273.93V172.636Z" fill="#F06BA8"/>
</g>
<g style="mix-blend-mode:luminosity">
<path d="M287.859 198.012C288.785 195.783 289.253 193.462 289.253 191.049C289.253 188.637 288.785 186.265 287.838 184.036C286.892 181.807 285.6 179.852 283.952 178.173C282.303 176.493 280.391 175.15 278.193 174.142C276.86 173.531 275.456 173.124 274.011 172.88L283.423 204.435C283.616 204.251 283.819 204.078 284.003 203.885C285.651 202.195 286.933 200.231 287.859 198.002V198.012Z" fill="#2CAAE2"/>
</g>
<path d="M287.859 198.012C288.785 195.783 289.253 193.462 289.253 191.049C289.253 188.637 288.785 186.265 287.838 184.036C286.892 181.807 285.6 179.852 283.952 178.173C282.303 176.493 280.391 175.15 278.193 174.142C276.86 173.531 275.456 173.124 274.011 172.88L283.423 204.435C283.616 204.251 283.819 204.078 284.003 203.885C285.651 202.195 286.933 200.231 287.859 198.002V198.012Z" fill="#FEE400"/>
<g style="mix-blend-mode:luminosity">
<path d="M360.912 172.636H346.749V209.473H360.912C363.456 209.473 365.816 208.964 368.014 207.957C369.967 207.061 371.687 205.88 373.193 204.445L363.781 172.89C362.845 172.738 361.889 172.636 360.902 172.636H360.912Z" fill="#8DCB89"/>
</g>
<g style="mix-blend-mode:multiply">
<path d="M363.71 172.636L363.791 172.89C365.236 173.135 366.64 173.531 367.973 174.152C370.171 175.16 372.094 176.504 373.732 178.183C375.38 179.863 376.673 181.817 377.619 184.046C378.565 186.276 379.033 188.617 379.033 191.06C379.033 193.503 378.565 195.793 377.639 198.022C376.713 200.251 375.421 202.216 373.783 203.906C373.6 204.099 373.396 204.272 373.203 204.455L374.699 209.484H408.692L419.68 172.646H363.71V172.636Z" fill="#2CAAE2"/>
</g>
<g style="mix-blend-mode:luminosity">
<path d="M377.639 198.012C378.565 195.783 379.033 193.462 379.033 191.049C379.033 188.637 378.565 186.265 377.619 184.036C376.673 181.807 375.38 179.852 373.732 178.173C372.084 176.493 370.171 175.15 367.973 174.142C366.64 173.531 365.236 173.124 363.791 172.88L373.203 204.435C373.396 204.251 373.6 204.078 373.783 203.885C375.431 202.195 376.713 200.231 377.639 198.002V198.012Z" fill="#2CAAE2"/>
</g>
<path d="M377.639 198.012C378.565 195.783 379.033 193.462 379.033 191.049C379.033 188.637 378.565 186.265 377.619 184.036C376.673 181.807 375.38 179.852 373.732 178.173C372.084 176.493 370.171 175.15 367.973 174.142C366.64 173.531 365.236 173.124 363.791 172.88L373.203 204.435C373.396 204.251 373.6 204.078 373.783 203.885C375.431 202.195 376.713 200.231 377.639 198.002V198.012Z" fill="#FEE400"/>
<g style="mix-blend-mode:multiply">
<path d="M553.079 47.2612H538.916V84.0989H553.079C555.623 84.0989 557.983 83.59 560.181 82.5823C562.134 81.6865 563.854 80.5057 565.36 79.0705L555.948 47.5157C555.012 47.363 554.056 47.2612 553.069 47.2612H553.079Z" fill="#2CAAE2"/>
</g>
<g style="mix-blend-mode:multiply">
<path d="M555.877 47.2612L555.958 47.5157C557.403 47.76 558.807 48.157 560.14 48.7779C562.338 49.7856 564.261 51.1292 565.899 52.8088C567.547 54.4883 568.839 56.4427 569.786 58.6719C570.732 60.901 571.2 63.2422 571.2 65.6852C571.2 68.1281 570.732 70.4184 569.806 72.6476C568.88 74.8768 567.588 76.8413 565.95 78.531C565.767 78.7244 565.563 78.8975 565.37 79.0807L566.866 84.1091H600.859L611.847 47.2714H555.877V47.2612Z" fill="#FEE400"/>
</g>
<g style="mix-blend-mode:luminosity">
<path d="M569.806 72.6475C570.732 70.4183 571.2 68.0975 571.2 65.6851C571.2 63.2727 570.732 60.901 569.786 58.6718C568.839 56.4426 567.547 54.4882 565.899 52.8087C564.251 51.1292 562.338 49.7855 560.14 48.7778C558.807 48.1671 557.403 47.7599 555.958 47.5156L565.37 79.0704C565.563 78.8872 565.767 78.7142 565.95 78.5208C567.598 76.8311 568.88 74.8665 569.806 72.6373V72.6475Z" fill="#2CAAE2"/>
</g>
<path d="M569.806 72.6475C570.732 70.4183 571.2 68.0975 571.2 65.6851C571.2 63.2727 570.732 60.901 569.786 58.6718C568.839 56.4426 567.547 54.4882 565.899 52.8087C564.251 51.1292 562.338 49.7855 560.14 48.7778C558.807 48.1671 557.403 47.7599 555.958 47.5156L565.37 79.0704C565.563 78.8872 565.767 78.7142 565.95 78.5208C567.598 76.8311 568.88 74.8665 569.806 72.6373V72.6475Z" fill="#8DCB89"/>
<path d="M553.079 109.943H538.916V146.781H553.079C555.623 146.781 557.983 146.272 560.181 145.264C562.134 144.369 563.854 143.188 565.36 141.753L555.948 110.198C555.012 110.045 554.056 109.943 553.069 109.943H553.079Z" fill="#FEE400"/>
<g style="mix-blend-mode:multiply">
<path d="M555.877 109.943L555.958 110.198C557.403 110.442 558.807 110.839 560.14 111.46C562.338 112.468 564.261 113.811 565.899 115.491C567.547 117.17 568.839 119.125 569.786 121.354C570.732 123.583 571.2 125.924 571.2 128.367C571.2 130.81 570.732 133.101 569.806 135.33C568.88 137.559 567.588 139.523 565.95 141.213C565.767 141.407 565.563 141.58 565.37 141.763L566.866 146.791H600.859L611.847 109.954H555.877V109.943Z" fill="#2CAAE2"/>
</g>
<g style="mix-blend-mode:luminosity">
<path d="M569.806 135.33C570.732 133.1 571.2 130.78 571.2 128.367C571.2 125.955 570.732 123.583 569.786 121.354C568.839 119.125 567.547 117.17 565.899 115.491C564.251 113.811 562.338 112.468 560.14 111.46C558.807 110.849 557.403 110.442 555.958 110.198L565.37 141.753C565.563 141.569 565.767 141.396 565.95 141.203C567.598 139.513 568.88 137.549 569.806 135.319V135.33Z" fill="#2CAAE2"/>
</g>
<path d="M569.806 135.33C570.732 133.1 571.2 130.78 571.2 128.367C571.2 125.955 570.732 123.583 569.786 121.354C568.839 119.125 567.547 117.17 565.899 115.491C564.251 113.811 562.338 112.468 560.14 111.46C558.807 110.849 557.403 110.442 555.958 110.198L565.37 141.753C565.563 141.569 565.767 141.396 565.95 141.203C567.598 139.513 568.88 137.549 569.806 135.319V135.33Z" fill="#8DCB89"/>
<g style="mix-blend-mode:multiply">
<path d="M652.251 47.2612H638.088V84.0989H652.251C654.794 84.0989 657.155 83.59 659.352 82.5823C661.306 81.6865 663.025 80.5057 664.531 79.0705L655.12 47.5157C654.184 47.363 653.227 47.2612 652.24 47.2612H652.251Z" fill="#2CAAE2"/>
</g>
<g style="mix-blend-mode:multiply">
<path d="M655.049 47.2612L655.13 47.5157C656.575 47.76 657.979 48.157 659.312 48.7779C661.509 49.7856 663.432 51.1292 665.07 52.8088C666.719 54.4883 668.011 56.4427 668.957 58.6719C669.903 60.901 670.371 63.2422 670.371 65.6852C670.371 68.1281 669.903 70.4184 668.978 72.6476C668.052 74.8768 666.76 76.8413 665.121 78.531C664.938 78.7244 664.735 78.8975 664.541 79.0807L666.037 84.1091H700.03L711.019 47.2714H655.049V47.2612Z" fill="#8DCB89"/>
</g>
<g style="mix-blend-mode:luminosity">
<path d="M668.978 72.6475C669.903 70.4183 670.371 68.0975 670.371 65.6851C670.371 63.2727 669.903 60.901 668.957 58.6718C668.011 56.4426 666.719 54.4882 665.07 52.8087C663.422 51.1292 661.509 49.7855 659.312 48.7778C657.979 48.1671 656.575 47.7599 655.13 47.5156L664.541 79.0704C664.735 78.8872 664.938 78.7142 665.121 78.5208C666.77 76.8311 668.052 74.8665 668.978 72.6373V72.6475Z" fill="#2CAAE2"/>
</g>
<path d="M668.978 72.6475C669.903 70.4183 670.371 68.0975 670.371 65.6851C670.371 63.2727 669.903 60.901 668.957 58.6718C668.011 56.4426 666.719 54.4882 665.07 52.8087C663.422 51.1292 661.509 49.7855 659.312 48.7778C657.979 48.1671 656.575 47.7599 655.13 47.5156L664.541 79.0704C664.735 78.8872 664.938 78.7142 665.121 78.5208C666.77 76.8311 668.052 74.8665 668.978 72.6373V72.6475Z" fill="#F06BA8"/>
<path d="M652.251 109.943H638.088V146.781H652.251C654.794 146.781 657.155 146.272 659.352 145.264C661.306 144.369 663.025 143.188 664.531 141.753L655.12 110.198C654.184 110.045 653.227 109.943 652.24 109.943H652.251Z" fill="#FEE400"/>
<g style="mix-blend-mode:multiply">
<path d="M655.049 109.943L655.13 110.198C656.575 110.442 657.979 110.839 659.312 111.46C661.509 112.468 663.432 113.811 665.07 115.491C666.719 117.17 668.011 119.125 668.957 121.354C669.903 123.583 670.371 125.924 670.371 128.367C670.371 130.81 669.903 133.101 668.978 135.33C668.052 137.559 666.76 139.523 665.121 141.213C664.938 141.407 664.735 141.58 664.541 141.763L666.037 146.791H700.03L711.019 109.954H655.049V109.943Z" fill="#8DCB89"/>
</g>
<g style="mix-blend-mode:luminosity">
<path d="M668.978 135.33C669.903 133.1 670.371 130.78 670.371 128.367C670.371 125.955 669.903 123.583 668.957 121.354C668.011 119.125 666.719 117.17 665.07 115.491C663.422 113.811 661.509 112.468 659.312 111.46C657.979 110.849 656.575 110.442 655.13 110.198L664.541 141.753C664.735 141.569 664.938 141.396 665.121 141.203C666.77 139.513 668.052 137.549 668.978 135.319V135.33Z" fill="#2CAAE2"/>
</g>
<path d="M668.978 135.33C669.903 133.1 670.371 130.78 670.371 128.367C670.371 125.955 669.903 123.583 668.957 121.354C668.011 119.125 666.719 117.17 665.07 115.491C663.422 113.811 661.509 112.468 659.312 111.46C657.979 110.849 656.575 110.442 655.13 110.198L664.541 141.753C664.735 141.569 664.938 141.396 665.121 141.203C666.77 139.513 668.052 137.549 668.978 135.319V135.33Z" fill="#F06BA8"/>
<g style="mix-blend-mode:luminosity">
<path d="M652.251 172.636H638.088V209.473H652.251C654.794 209.473 657.155 208.964 659.352 207.957C661.306 207.061 663.025 205.88 664.531 204.445L655.12 172.89C654.184 172.738 653.227 172.636 652.24 172.636H652.251Z" fill="#8DCB89"/>
</g>
<g style="mix-blend-mode:multiply">
<path d="M655.049 172.636L655.13 172.89C656.575 173.135 657.979 173.531 659.312 174.152C661.509 175.16 663.432 176.504 665.07 178.183C666.719 179.863 668.011 181.817 668.957 184.046C669.903 186.276 670.371 188.617 670.371 191.06C670.371 193.503 669.903 195.793 668.978 198.022C668.052 200.251 666.76 202.216 665.121 203.906C664.938 204.099 664.735 204.272 664.541 204.455L666.037 209.484H700.03L711.019 172.646H655.049V172.636Z" fill="#FEE400"/>
</g>
<g style="mix-blend-mode:luminosity">
<path d="M668.978 198.012C669.903 195.783 670.371 193.462 670.371 191.049C670.371 188.637 669.903 186.265 668.957 184.036C668.011 181.807 666.719 179.852 665.07 178.173C663.422 176.493 661.509 175.15 659.312 174.142C657.979 173.531 656.575 173.124 655.13 172.88L664.541 204.435C664.735 204.251 664.938 204.078 665.121 203.885C666.77 202.195 668.052 200.231 668.978 198.002V198.012Z" fill="#2CAAE2"/>
</g>
<path d="M668.978 198.012C669.903 195.783 670.371 193.462 670.371 191.049C670.371 188.637 669.903 186.265 668.957 184.036C668.011 181.807 666.719 179.852 665.07 178.173C663.422 176.493 661.509 175.15 659.312 174.142C657.979 173.531 656.575 173.124 655.13 172.88L664.541 204.435C664.735 204.251 664.938 204.078 665.121 203.885C666.77 202.195 668.052 200.231 668.978 198.002V198.012Z" fill="#F06BA8"/>
<g style="mix-blend-mode:multiply">
<path d="M750.761 47.2612H736.598V84.0989H750.761C753.304 84.0989 755.665 83.59 757.863 82.5823C759.816 81.6865 761.536 80.5057 763.041 79.0705L753.63 47.5157C752.694 47.363 751.737 47.2612 750.751 47.2612H750.761Z" fill="#2CAAE2"/>
</g>
<g style="mix-blend-mode:multiply">
<path d="M753.559 47.2612L753.64 47.5157C755.085 47.76 756.489 48.157 757.822 48.7779C760.02 49.7856 761.943 51.1292 763.581 52.8088C765.229 54.4883 766.521 56.4427 767.467 58.6719C768.414 60.901 768.882 63.2422 768.882 65.6852C768.882 68.1281 768.414 70.4184 767.488 72.6476C766.562 74.8768 765.27 76.8413 763.632 78.531C763.448 78.7244 763.245 78.8975 763.052 79.0807L764.547 84.1091H798.54L809.529 47.2714H753.559V47.2612Z" fill="#FEE400"/>
</g>
<g style="mix-blend-mode:luminosity">
<path d="M767.488 72.6475C768.414 70.4183 768.882 68.0975 768.882 65.6851C768.882 63.2727 768.414 60.901 767.467 58.6718C766.521 56.4426 765.229 54.4882 763.581 52.8087C761.932 51.1292 760.02 49.7855 757.822 48.7778C756.489 48.1671 755.085 47.7599 753.64 47.5156L763.052 79.0704C763.245 78.8872 763.448 78.7142 763.632 78.5208C765.28 76.8311 766.562 74.8665 767.488 72.6373V72.6475Z" fill="#2CAAE2"/>
</g>
<path d="M767.488 72.6475C768.414 70.4183 768.882 68.0975 768.882 65.6851C768.882 63.2727 768.414 60.901 767.467 58.6718C766.521 56.4426 765.229 54.4882 763.581 52.8087C761.932 51.1292 760.02 49.7855 757.822 48.7778C756.489 48.1671 755.085 47.7599 753.64 47.5156L763.052 79.0704C763.245 78.8872 763.448 78.7142 763.632 78.5208C765.28 76.8311 766.562 74.8665 767.488 72.6373V72.6475Z" fill="#F06BA8"/>
<path d="M750.761 109.943H736.598V146.781H750.761C753.304 146.781 755.665 146.272 757.863 145.264C759.816 144.369 761.536 143.188 763.041 141.753L753.63 110.198C752.694 110.045 751.737 109.943 750.751 109.943H750.761Z" fill="#FEE400"/>
<g style="mix-blend-mode:multiply">
<path d="M753.559 109.943L753.64 110.198C755.085 110.442 756.489 110.839 757.822 111.46C760.02 112.468 761.943 113.811 763.581 115.491C765.229 117.17 766.521 119.125 767.467 121.354C768.414 123.583 768.882 125.924 768.882 128.367C768.882 130.81 768.414 133.101 767.488 135.33C766.562 137.559 765.27 139.523 763.632 141.213C763.448 141.407 763.245 141.58 763.052 141.763L764.547 146.791H798.54L809.529 109.954H753.559V109.943Z" fill="#2CAAE2"/>
</g>
<g style="mix-blend-mode:luminosity">
<path d="M767.488 135.33C768.414 133.1 768.882 130.78 768.882 128.367C768.882 125.955 768.414 123.583 767.467 121.354C766.521 119.125 765.229 117.17 763.581 115.491C761.932 113.811 760.02 112.468 757.822 111.46C756.489 110.849 755.085 110.442 753.64 110.198L763.052 141.753C763.245 141.569 763.448 141.396 763.632 141.203C765.28 139.513 766.562 137.549 767.488 135.319V135.33Z" fill="#2CAAE2"/>
</g>
<path d="M767.488 135.33C768.414 133.1 768.882 130.78 768.882 128.367C768.882 125.955 768.414 123.583 767.467 121.354C766.521 119.125 765.229 117.17 763.581 115.491C761.932 113.811 760.02 112.468 757.822 111.46C756.489 110.849 755.085 110.442 753.64 110.198L763.052 141.753C763.245 141.569 763.448 141.396 763.632 141.203C765.28 139.513 766.562 137.549 767.488 135.319V135.33Z" fill="#F06BA8"/>
<g style="mix-blend-mode:luminosity">
<path d="M750.761 172.636H736.598V209.473H750.761C753.304 209.473 755.665 208.964 757.863 207.957C759.816 207.061 761.536 205.88 763.041 204.445L753.63 172.89C752.694 172.738 751.737 172.636 750.751 172.636H750.761Z" fill="#8DCB89"/>
</g>
<g style="mix-blend-mode:multiply">
<path d="M753.559 172.636L753.64 172.89C755.085 173.135 756.489 173.531 757.822 174.152C760.02 175.16 761.943 176.504 763.581 178.183C765.229 179.863 766.521 181.817 767.467 184.046C768.414 186.276 768.882 188.617 768.882 191.06C768.882 193.503 768.414 195.793 767.488 198.022C766.562 200.251 765.27 202.216 763.632 203.906C763.448 204.099 763.245 204.272 763.052 204.455L764.547 209.484H798.54L809.529 172.646H753.559V172.636Z" fill="#2CAAE2"/>
</g>
<g style="mix-blend-mode:luminosity">
<path d="M767.488 198.012C768.414 195.783 768.882 193.462 768.882 191.049C768.882 188.637 768.414 186.265 767.467 184.036C766.521 181.807 765.229 179.852 763.581 178.173C761.932 176.493 760.02 175.15 757.822 174.142C756.489 173.531 755.085 173.124 753.64 172.88L763.052 204.435C763.245 204.251 763.448 204.078 763.632 203.885C765.28 202.195 766.562 200.231 767.488 198.002V198.012Z" fill="#2CAAE2"/>
</g>
<path d="M767.488 198.012C768.414 195.783 768.882 193.462 768.882 191.049C768.882 188.637 768.414 186.265 767.467 184.036C766.521 181.807 765.229 179.852 763.581 178.173C761.932 176.493 760.02 175.15 757.822 174.142C756.489 173.531 755.085 173.124 753.64 172.88L763.052 204.435C763.245 204.251 763.448 204.078 763.632 203.885C765.28 202.195 766.562 200.231 767.488 198.002V198.012Z" fill="#F06BA8"/>
<g style="mix-blend-mode:multiply">
<path d="M271.132 230.238H256.969V267.076H271.132C273.675 267.076 276.036 266.567 278.234 265.559C280.187 264.664 281.907 263.483 283.412 262.048L274.001 230.493C273.065 230.34 272.109 230.238 271.122 230.238H271.132Z" fill="#F06BA8"/>
</g>
<g style="mix-blend-mode:luminosity">
<path d="M273.93 230.238L274.011 230.493C275.456 230.737 276.86 231.134 278.193 231.755C280.391 232.763 282.314 234.106 283.952 235.786C285.6 237.465 286.892 239.42 287.838 241.649C288.785 243.878 289.253 246.219 289.253 248.662C289.253 251.105 288.785 253.395 287.859 255.625C286.933 257.854 285.641 259.818 284.003 261.508C283.819 261.701 283.616 261.875 283.423 262.058L284.918 267.086H318.912L329.9 230.248H273.93V230.238Z" fill="#8DCB89"/>
</g>
<g style="mix-blend-mode:luminosity">
<path d="M287.859 255.614C288.785 253.385 289.253 251.064 289.253 248.652C289.253 246.239 288.785 243.868 287.838 241.639C286.892 239.409 285.6 237.455 283.952 235.775C282.303 234.096 280.391 232.752 278.193 231.745C276.86 231.134 275.456 230.727 274.011 230.482L283.423 262.037C283.616 261.854 283.819 261.681 284.003 261.488C285.651 259.798 286.933 257.833 287.859 255.604V255.614Z" fill="#2CAAE2"/>
</g>
<path d="M287.859 255.614C288.785 253.385 289.253 251.064 289.253 248.652C289.253 246.239 288.785 243.868 287.838 241.639C286.892 239.409 285.6 237.455 283.952 235.775C282.303 234.096 280.391 232.752 278.193 231.745C276.86 231.134 275.456 230.727 274.011 230.482L283.423 262.037C283.616 261.854 283.819 261.681 284.003 261.488C285.651 259.798 286.933 257.833 287.859 255.604V255.614Z" fill="#FEE400"/>
<g style="mix-blend-mode:multiply">
<path d="M360.912 230.238H346.749V267.076H360.912C363.456 267.076 365.816 266.567 368.014 265.559C369.967 264.664 371.687 263.483 373.193 262.048L363.781 230.493C362.845 230.34 361.889 230.238 360.902 230.238H360.912Z" fill="#F06BA8"/>
</g>
<g style="mix-blend-mode:multiply">
<path d="M363.71 230.238L363.791 230.493C365.236 230.737 366.64 231.134 367.973 231.755C370.171 232.763 372.094 234.106 373.732 235.786C375.38 237.465 376.673 239.42 377.619 241.649C378.565 243.878 379.033 246.219 379.033 248.662C379.033 251.105 378.565 253.395 377.639 255.625C376.713 257.854 375.421 259.818 373.783 261.508C373.6 261.701 373.396 261.875 373.203 262.058L374.699 267.086H408.692L419.68 230.248H363.71V230.238Z" fill="#2CAAE2"/>
</g>
<g style="mix-blend-mode:luminosity">
<path d="M377.639 255.614C378.565 253.385 379.033 251.064 379.033 248.652C379.033 246.239 378.565 243.868 377.619 241.639C376.673 239.409 375.38 237.455 373.732 235.775C372.084 234.096 370.171 232.752 367.973 231.745C366.64 231.134 365.236 230.727 363.791 230.482L373.203 262.037C373.396 261.854 373.6 261.681 373.783 261.488C375.431 259.798 376.713 257.833 377.639 255.604V255.614Z" fill="#2CAAE2"/>
</g>
<path d="M377.639 255.614C378.565 253.385 379.033 251.064 379.033 248.652C379.033 246.239 378.565 243.868 377.619 241.639C376.673 239.409 375.38 237.455 373.732 235.775C372.084 234.096 370.171 232.752 367.973 231.745C366.64 231.134 365.236 230.727 363.791 230.482L373.203 262.037C373.396 261.854 373.6 261.681 373.783 261.488C375.431 259.798 376.713 257.833 377.639 255.604V255.614Z" fill="#FEE400"/>
<path d="M70.2655 109.943H56.1025V146.781H70.2655C72.8092 146.781 75.1697 146.272 77.3674 145.264C79.3209 144.369 81.0404 143.188 82.5462 141.753L73.1348 110.198C72.1987 110.045 71.2423 109.943 70.2554 109.943H70.2655Z" fill="#FEE400"/>
<g style="mix-blend-mode:luminosity">
<path d="M73.0635 109.943L73.1449 110.198C74.5897 110.442 75.9938 110.839 77.3267 111.46C79.5244 112.468 81.4474 113.811 83.0855 115.491C84.7338 117.17 86.0259 119.125 86.9722 121.354C87.9184 123.583 88.3864 125.924 88.3864 128.367C88.3864 130.81 87.9184 133.101 86.9925 135.33C86.0666 137.559 84.7745 139.523 83.1364 141.213C82.9532 141.407 82.7497 141.58 82.5564 141.763L84.0521 146.791H118.045L129.034 109.954H73.0635V109.943Z" fill="#8DCB89"/>
</g>
<g style="mix-blend-mode:luminosity">
<path d="M86.9925 135.33C87.9184 133.1 88.3864 130.78 88.3864 128.367C88.3864 125.955 87.9184 123.583 86.9722 121.354C86.0259 119.125 84.7338 117.17 83.0855 115.491C81.4372 113.811 79.5244 112.468 77.3267 111.46C75.9938 110.849 74.5897 110.442 73.1449 110.198L82.5564 141.753C82.7497 141.569 82.9532 141.396 83.1363 141.203C84.7846 139.513 86.0666 137.549 86.9925 135.319V135.33Z" fill="#2CAAE2"/>
</g>
<path d="M86.9925 135.33C87.9184 133.1 88.3864 130.78 88.3864 128.367C88.3864 125.955 87.9286 123.583 86.9722 121.354C86.0158 119.135 84.7338 117.17 83.0855 115.491C81.4372 113.811 79.5244 112.468 77.3267 111.46C75.9938 110.849 74.5897 110.442 73.1449 110.198L82.5564 141.753C82.7497 141.569 82.9532 141.396 83.1363 141.203C84.7846 139.513 86.0666 137.549 86.9925 135.319V135.33Z" fill="#2CAAE2"/>
<path d="M160.046 109.943H145.883V146.781H160.046C162.59 146.781 164.95 146.272 167.148 145.264C169.101 144.369 170.821 143.188 172.327 141.753L162.915 110.198C161.979 110.045 161.023 109.943 160.036 109.943H160.046Z" fill="#FEE400"/>
<g style="mix-blend-mode:multiply">
<path d="M162.854 109.943L162.935 110.198C164.38 110.442 165.784 110.839 167.117 111.46C169.315 112.468 171.238 113.811 172.876 115.491C174.524 117.17 175.816 119.125 176.763 121.354C177.709 123.583 178.177 125.924 178.177 128.367C178.177 130.81 177.709 133.101 176.783 135.33C175.857 137.559 174.565 139.523 172.927 141.213C172.744 141.407 172.54 141.58 172.347 141.763L173.843 146.791H207.836L218.824 109.954H162.854V109.943Z" fill="#F06BA8"/>
</g>
<g style="mix-blend-mode:luminosity">
<path d="M176.773 135.33C177.699 133.1 178.167 130.78 178.167 128.367C178.167 125.955 177.699 123.583 176.753 121.354C175.806 119.125 174.514 117.17 172.866 115.491C171.218 113.811 169.305 112.468 167.107 111.46C165.774 110.849 164.37 110.442 162.925 110.198L172.337 141.753C172.53 141.569 172.734 141.396 172.917 141.203C174.565 139.513 175.847 137.549 176.773 135.319V135.33Z" fill="#2CAAE2"/>
</g>
<path d="M176.773 135.33C177.699 133.1 178.167 130.78 178.167 128.367C178.167 125.955 177.699 123.583 176.753 121.354C175.806 119.125 174.514 117.17 172.866 115.491C171.218 113.811 169.305 112.468 167.107 111.46C165.774 110.849 164.37 110.442 162.925 110.198L172.337 141.753C172.53 141.569 172.734 141.396 172.917 141.203C174.565 139.513 175.847 137.549 176.773 135.319V135.33Z" fill="#2CAAE2"/>
<g style="mix-blend-mode:luminosity">
<path d="M70.2655 172.636H56.1025V209.473H70.2655C72.8092 209.473 75.1697 208.964 77.3674 207.957C79.3209 207.061 81.0404 205.88 82.5462 204.445L73.1348 172.89C72.1987 172.738 71.2423 172.636 70.2554 172.636H70.2655Z" fill="#8DCB89"/>
</g>
<path d="M73.0635 172.636L73.1449 172.89C74.5897 173.135 75.9938 173.531 77.3267 174.152C79.5244 175.16 81.4474 176.504 83.0855 178.183C84.7338 179.863 86.0259 181.817 86.9722 184.046C87.9184 186.276 88.3864 188.617 88.3864 191.06C88.3864 193.503 87.9184 195.793 86.9925 198.022C86.0666 200.251 84.7745 202.216 83.1364 203.906C82.9532 204.099 82.7497 204.272 82.5564 204.455L84.0521 209.484H118.045L129.034 172.646H73.0635V172.636Z" fill="#FEE400"/>
<g style="mix-blend-mode:luminosity">
<path d="M86.9925 198.012C87.9184 195.783 88.3864 193.462 88.3864 191.049C88.3864 188.637 87.9184 186.265 86.9722 184.036C86.0259 181.807 84.7338 179.852 83.0855 178.173C81.4372 176.493 79.5244 175.15 77.3267 174.142C75.9938 173.531 74.5897 173.124 73.1449 172.88L82.5564 204.435C82.7497 204.251 82.9532 204.078 83.1363 203.885C84.7846 202.195 86.0666 200.231 86.9925 198.002V198.012Z" fill="#2CAAE2"/>
</g>
<path d="M86.9925 198.012C87.9184 195.783 88.3864 193.462 88.3864 191.049C88.3864 188.637 87.9184 186.265 86.9722 184.036C86.0259 181.807 84.7338 179.852 83.0855 178.173C81.4372 176.493 79.5244 175.15 77.3267 174.142C75.9938 173.531 74.5897 173.124 73.1449 172.88L82.5564 204.435C82.7497 204.251 82.9532 204.078 83.1363 203.885C84.7846 202.195 86.0666 200.231 86.9925 198.002V198.012Z" fill="#2CAAE2"/>
<g style="mix-blend-mode:luminosity">
<path d="M160.046 172.636H145.883V209.473H160.046C162.59 209.473 164.95 208.964 167.148 207.957C169.101 207.061 170.821 205.88 172.327 204.445L162.915 172.89C161.979 172.738 161.023 172.636 160.036 172.636H160.046Z" fill="#8DCB89"/>
</g>
<g style="mix-blend-mode:multiply">
<path d="M162.854 172.636L162.935 172.89C164.38 173.135 165.784 173.531 167.117 174.152C169.315 175.16 171.238 176.504 172.876 178.183C174.524 179.863 175.816 181.817 176.763 184.046C177.709 186.276 178.177 188.617 178.177 191.06C178.177 193.503 177.709 195.793 176.783 198.022C175.857 200.251 174.565 202.216 172.927 203.906C172.744 204.099 172.54 204.272 172.347 204.455L173.843 209.484H207.836L218.824 172.646H162.854V172.636Z" fill="#F06BA8"/>
</g>
<g style="mix-blend-mode:luminosity">
<path d="M176.773 198.012C177.699 195.783 178.167 193.462 178.167 191.049C178.167 188.637 177.699 186.265 176.753 184.036C175.806 181.807 174.514 179.852 172.866 178.173C171.218 176.493 169.305 175.15 167.107 174.142C165.774 173.531 164.37 173.124 162.925 172.88L172.337 204.435C172.53 204.251 172.734 204.078 172.917 203.885C174.565 202.195 175.847 200.231 176.773 198.002V198.012Z" fill="#2CAAE2"/>
</g>
<path d="M176.773 198.012C177.699 195.783 178.167 193.462 178.167 191.049C178.167 188.637 177.699 186.265 176.753 184.036C175.806 181.807 174.514 179.852 172.866 178.173C171.218 176.493 169.305 175.15 167.107 174.142C165.774 173.531 164.37 173.124 162.925 172.88L172.337 204.435C172.53 204.251 172.734 204.078 172.917 203.885C174.565 202.195 175.847 200.231 176.773 198.002V198.012Z" fill="#2CAAE2"/>
<g style="mix-blend-mode:multiply">
<path d="M70.2655 230.238H56.1025V267.076H70.2655C72.8092 267.076 75.1697 266.567 77.3674 265.559C79.3209 264.664 81.0404 263.483 82.5462 262.048L73.1348 230.493C72.1987 230.34 71.2423 230.238 70.2554 230.238H70.2655Z" fill="#F06BA8"/>
</g>
<g style="mix-blend-mode:luminosity">
<path d="M73.0635 230.238L73.1449 230.493C74.5897 230.737 75.9938 231.134 77.3267 231.755C79.5244 232.763 81.4474 234.106 83.0855 235.786C84.7338 237.465 86.0259 239.42 86.9722 241.649C87.9184 243.878 88.3864 246.219 88.3864 248.662C88.3864 251.105 87.9184 253.395 86.9925 255.625C86.0666 257.854 84.7745 259.818 83.1364 261.508C82.9532 261.701 82.7497 261.875 82.5564 262.058L84.0521 267.086H118.045L129.034 230.248H73.0635V230.238Z" fill="#8DCB89"/>
</g>
<g style="mix-blend-mode:luminosity">
<path d="M86.9925 255.614C87.9184 253.385 88.3864 251.064 88.3864 248.652C88.3864 246.239 87.9184 243.868 86.9722 241.639C86.0259 239.409 84.7338 237.455 83.0855 235.775C81.4372 234.096 79.5244 232.752 77.3267 231.745C75.9938 231.134 74.5897 230.727 73.1449 230.482L82.5564 262.037C82.7497 261.854 82.9532 261.681 83.1363 261.488C84.7846 259.798 86.0666 257.833 86.9925 255.604V255.614Z" fill="#2CAAE2"/>
</g>
<path d="M86.9925 255.614C87.9184 253.385 88.3864 251.064 88.3864 248.652C88.3864 246.239 87.9184 243.868 86.9722 241.639C86.0259 239.409 84.7338 237.455 83.0855 235.775C81.4372 234.096 79.5244 232.752 77.3267 231.745C75.9938 231.134 74.5897 230.727 73.1449 230.482L82.5564 262.037C82.7497 261.854 82.9532 261.681 83.1363 261.488C84.7846 259.798 86.0666 257.833 86.9925 255.604V255.614Z" fill="#2CAAE2"/>
<g clip-path="url(#clip0_403_648)">
<g style="mix-blend-mode:multiply">
<path d="M160.046 230.238H145.883V267.076H160.046C162.59 267.076 164.95 266.567 167.148 265.559C169.101 264.664 170.821 263.483 172.327 262.048L162.915 230.493C161.979 230.34 161.023 230.238 160.036 230.238H160.046Z" fill="#F06BA8"/>
</g>
<path d="M162.854 230.238L162.935 230.493C164.38 230.737 165.784 231.134 167.117 231.755C169.315 232.763 171.238 234.106 172.876 235.786C174.524 237.465 175.816 239.42 176.763 241.649C177.709 243.878 178.177 246.219 178.177 248.662C178.177 251.105 177.709 253.395 176.783 255.625C175.857 257.854 174.565 259.818 172.927 261.508C172.744 261.701 172.54 261.875 172.347 262.058L173.843 267.086H207.836L218.824 230.248H162.854V230.238Z" fill="#FEE400"/>
<g style="mix-blend-mode:luminosity">
<path d="M176.773 255.614C177.699 253.385 178.167 251.064 178.167 248.652C178.167 246.239 177.699 243.868 176.753 241.639C175.806 239.409 174.514 237.455 172.866 235.775C171.218 234.096 169.305 232.752 167.107 231.745C165.774 231.134 164.37 230.727 162.925 230.482L172.337 262.037C172.53 261.854 172.734 261.681 172.917 261.488C174.565 259.798 175.847 257.833 176.773 255.604V255.614Z" fill="#2CAAE2"/>
</g>
<path d="M176.773 255.614C177.699 253.385 178.167 251.064 178.167 248.652C178.167 246.239 177.699 243.868 176.753 241.639C175.806 239.409 174.514 237.455 172.866 235.775C171.218 234.096 169.305 232.752 167.107 231.745C165.774 231.134 164.37 230.727 162.925 230.482L172.337 262.037C172.53 261.854 172.734 261.681 172.917 261.488C174.565 259.798 175.847 257.833 176.773 255.604V255.614Z" fill="#2CAAE2"/>
</g>
<g style="mix-blend-mode:multiply">
<path d="M454.569 230.238H440.406V267.076H454.569C457.113 267.076 459.473 266.567 461.671 265.559C463.624 264.664 465.344 263.483 466.85 262.048L457.438 230.493C456.502 230.34 455.546 230.238 454.559 230.238H454.569Z" fill="#F06BA8"/>
</g>
<g style="mix-blend-mode:multiply">
<path d="M457.367 230.238L457.448 230.493C458.893 230.737 460.297 231.134 461.63 231.755C463.828 232.763 465.751 234.106 467.389 235.786C469.037 237.465 470.329 239.42 471.276 241.649C472.222 243.878 472.69 246.219 472.69 248.662C472.69 251.105 472.222 253.395 471.296 255.625C470.37 257.854 469.078 259.818 467.44 261.508C467.257 261.701 467.053 261.875 466.86 262.058L468.356 267.086H502.349L513.337 230.248H457.367V230.238Z" fill="#2CAAE2"/>
</g>
<g style="mix-blend-mode:luminosity">
<path d="M471.296 255.614C472.222 253.385 472.69 251.064 472.69 248.652C472.69 246.239 472.222 243.868 471.276 241.639C470.329 239.409 469.037 237.455 467.389 235.775C465.741 234.096 463.828 232.752 461.63 231.745C460.297 231.134 458.893 230.727 457.448 230.482L466.86 262.037C467.053 261.854 467.257 261.681 467.44 261.488C469.088 259.798 470.37 257.833 471.296 255.604V255.614Z" fill="#2CAAE2"/>
</g>
<path d="M471.296 255.614C472.222 253.385 472.69 251.064 472.69 248.652C472.69 246.239 472.222 243.868 471.276 241.639C470.329 239.409 469.037 237.455 467.389 235.775C465.741 234.096 463.828 232.752 461.63 231.745C460.297 231.134 458.893 230.727 457.448 230.482L466.86 262.037C467.053 261.854 467.257 261.681 467.44 261.488C469.088 259.798 470.37 257.833 471.296 255.604V255.614Z" fill="#8DCB89"/>
<g style="mix-blend-mode:multiply">
<path d="M553.079 230.238H538.916V267.076H553.079C555.623 267.076 557.983 266.567 560.181 265.559C562.134 264.664 563.854 263.483 565.36 262.048L555.948 230.493C555.012 230.34 554.056 230.238 553.069 230.238H553.079Z" fill="#F06BA8"/>
</g>
<g style="mix-blend-mode:multiply">
<path d="M555.877 230.238L555.958 230.493C557.403 230.737 558.807 231.134 560.14 231.755C562.338 232.763 564.261 234.106 565.899 235.786C567.547 237.465 568.839 239.42 569.786 241.649C570.732 243.878 571.2 246.219 571.2 248.662C571.2 251.105 570.732 253.395 569.806 255.625C568.88 257.854 567.588 259.818 565.95 261.508C565.767 261.701 565.563 261.875 565.37 262.058L566.866 267.086H600.859L611.847 230.248H555.877V230.238Z" fill="#FEE400"/>
</g>
<g style="mix-blend-mode:luminosity">
<path d="M569.806 255.614C570.732 253.385 571.2 251.064 571.2 248.652C571.2 246.239 570.732 243.868 569.786 241.639C568.839 239.409 567.547 237.455 565.899 235.775C564.251 234.096 562.338 232.752 560.14 231.745C558.807 231.134 557.403 230.727 555.958 230.482L565.37 262.037C565.563 261.854 565.767 261.681 565.95 261.488C567.598 259.798 568.88 257.833 569.806 255.604V255.614Z" fill="#2CAAE2"/>
</g>
<path d="M569.806 255.614C570.732 253.385 571.2 251.064 571.2 248.652C571.2 246.239 570.732 243.868 569.786 241.639C568.839 239.409 567.547 237.455 565.899 235.775C564.251 234.096 562.338 232.752 560.14 231.745C558.807 231.134 557.403 230.727 555.958 230.482L565.37 262.037C565.563 261.854 565.767 261.681 565.95 261.488C567.598 259.798 568.88 257.833 569.806 255.604V255.614Z" fill="#8DCB89"/>
<path d="M31.7853 2.11719V265.111" stroke="#231F20" stroke-miterlimit="10"/>
<path d="M429.417 2.11719V265.111" stroke="#231F20" stroke-miterlimit="10"/>
<path d="M622.775 2.11719V265.111" stroke="#231F20" stroke-miterlimit="10"/>
<path d="M0 35.5142H816" stroke="#231F20" stroke-miterlimit="10"/>
<path d="M231.309 2.11719V265.111" stroke="#231F20" stroke-miterlimit="10"/>
<path d="M14.163 47.2612H0V84.0989H14.163C16.7066 84.0989 19.0671 83.59 21.2648 82.5823C23.2184 81.6865 24.9379 80.5057 26.4437 79.0705L17.0322 47.5157C16.0962 47.363 15.1398 47.2612 14.1528 47.2612H14.163Z" fill="#2CAAE2"/>
<path d="M14.163 109.943H0V146.781H14.163C16.7066 146.781 19.0671 146.272 21.2648 145.264C23.2184 144.369 24.9379 143.188 26.4437 141.753L17.0322 110.198C16.0962 110.045 15.1398 109.943 14.1528 109.943H14.163Z" fill="#FEE400"/>
<path d="M14.163 172.636H0V209.473H14.163C16.7066 209.473 19.0671 208.964 21.2648 207.957C23.2184 207.061 24.9379 205.88 26.4437 204.445L17.0322 172.89C16.0962 172.738 15.1398 172.636 14.1528 172.636H14.163Z" fill="#8DCB89"/>
<path d="M14.163 230.239H0V267.076H14.163C16.7066 267.076 19.0671 266.568 21.2648 265.56C23.2184 264.664 24.9379 263.483 26.4437 262.048L17.0322 230.493C16.0962 230.341 15.1398 230.239 14.1528 230.239H14.163Z" fill="#F06BA8"/>
<path d="M287.859 25.1221C288.785 22.8929 289.253 20.5721 289.253 18.1597C289.253 15.7473 288.785 13.3756 287.838 11.1464C286.892 8.91719 285.6 6.96283 283.952 5.2833C282.303 3.60377 280.391 2.26014 278.193 1.25243C276.86 0.641688 275.456 0.23453 274.011 -0.00976562L283.423 31.545C283.616 31.3618 283.819 31.1888 284.003 30.9954C285.651 29.3057 286.933 27.3411 287.859 25.1119V25.1221Z" fill="#FEE400"/>
<path d="M377.639 25.1221C378.565 22.8929 379.033 20.5721 379.033 18.1597C379.033 15.7473 378.565 13.3756 377.619 11.1464C376.673 8.91719 375.38 6.96283 373.732 5.2833C372.084 3.60377 370.171 2.26014 367.973 1.25243C366.64 0.641688 365.236 0.23453 363.792 -0.00976562L373.203 31.545C373.396 31.3618 373.6 31.1888 373.783 30.9954C375.431 29.3057 376.713 27.3411 377.639 25.1119V25.1221Z" fill="#FEE400"/>
<path d="M471.296 25.1221C472.222 22.8929 472.69 20.5721 472.69 18.1597C472.69 15.7473 472.222 13.3756 471.276 11.1464C470.329 8.91719 469.037 6.96283 467.389 5.2833C465.741 3.60377 463.828 2.26014 461.63 1.25243C460.297 0.641688 458.893 0.23453 457.448 -0.00976562L466.86 31.545C467.053 31.3618 467.257 31.1888 467.44 30.9954C469.088 29.3057 470.37 27.3411 471.296 25.1119V25.1221Z" fill="#8DCB89"/>
<path d="M569.806 25.1221C570.732 22.8929 571.2 20.5721 571.2 18.1597C571.2 15.7473 570.732 13.3756 569.786 11.1464C568.839 8.91719 567.547 6.96283 565.899 5.2833C564.251 3.60377 562.338 2.26014 560.14 1.25243C558.807 0.641688 557.403 0.23453 555.958 -0.00976562L565.37 31.545C565.563 31.3618 565.767 31.1888 565.95 30.9954C567.598 29.3057 568.88 27.3411 569.806 25.1119V25.1221Z" fill="#8DCB89"/>
<path d="M668.978 25.1221C669.903 22.8929 670.371 20.5721 670.371 18.1597C670.371 15.7473 669.903 13.3756 668.957 11.1464C668.011 8.91719 666.719 6.96283 665.071 5.2833C663.422 3.60377 661.509 2.26014 659.312 1.25243C657.979 0.641688 656.575 0.23453 655.13 -0.00976562L664.541 31.545C664.735 31.3618 664.938 31.1888 665.121 30.9954C666.77 29.3057 668.052 27.3411 668.978 25.1119V25.1221Z" fill="#F06BA8"/>
<path d="M767.488 25.1221C768.414 22.8929 768.882 20.5721 768.882 18.1597C768.882 15.7473 768.414 13.3756 767.467 11.1464C766.521 8.91719 765.229 6.96283 763.581 5.2833C761.932 3.60377 760.02 2.26014 757.822 1.25243C756.489 0.641688 755.085 0.23453 753.64 -0.00976562L763.052 31.545C763.245 31.3618 763.448 31.1888 763.632 30.9954C765.28 29.3057 766.562 27.3411 767.488 25.1119V25.1221Z" fill="#F06BA8"/>
<path d="M86.9925 25.1221C87.9184 22.8929 88.3865 20.5721 88.3865 18.1597C88.3865 15.7473 87.9184 13.3756 86.9722 11.1464C86.026 8.91719 84.7338 6.96283 83.0855 5.2833C81.4372 3.60377 79.5244 2.26014 77.3267 1.25243C75.9938 0.641688 74.5897 0.23453 73.145 -0.00976562L82.5564 31.545C82.7497 31.3618 82.9532 31.1888 83.1364 30.9954C84.7847 29.3057 86.0667 27.3411 86.9925 25.1119V25.1221Z" fill="#2CAAE2"/>
<path d="M176.773 25.1221C177.699 22.8929 178.167 20.5721 178.167 18.1597C178.167 15.7473 177.699 13.3756 176.753 11.1464C175.806 8.91719 174.514 6.96283 172.866 5.2833C171.218 3.60377 169.305 2.26014 167.107 1.25243C165.774 0.641688 164.37 0.23453 162.925 -0.00976562L172.337 31.545C172.53 31.3618 172.734 31.1888 172.917 30.9954C174.565 29.3057 175.847 27.3411 176.773 25.1119V25.1221Z" fill="#2CAAE2"/>
<defs>
<clipPath id="clip0_403_648">
<rect width="72.9415" height="36.8479" fill="white" transform="translate(145.883 230.238)"/>
</clipPath>
</defs>
</svg>
